<?xml version="1.0" encoding="UTF-8"?>
<svg id="Layer_1" data-name="Layer 1" xmlns="http://www.w3.org/2000/svg" viewBox="0 0 994 229.61">
  <defs>
    <style>
      .cls-1 {
        fill: #f9bae0;
      }

      .cls-2 {
        fill: #c22299;
      }

      .cls-3 {
        fill: #fff;
      }

      .cls-4 {
        fill: #773a96;
      }
    </style>
  </defs>
  <g>
    <circle class="cls-2" cx="114.81" cy="114.81" r="114.81"/>
    <circle class="cls-4" cx="124.26" cy="131.55" r="39.74"/>
    <circle class="cls-3" cx="118.94" cy="42.47" r="26.88"/>
    <circle class="cls-3" cx="56.54" cy="76.94" r="19.12"/>
    <circle class="cls-1" cx="32.67" cy="120.36" r="18.73"/>
    <circle class="cls-1" cx="169.18" cy="73.64" r="21.77"/>
    <circle class="cls-3" cx="189.03" cy="123.76" r="17.6"/>
    <circle class="cls-3" cx="165.72" cy="183.26" r="18.61"/>
    <circle class="cls-3" cx="118.72" cy="200.49" r="13.53"/>
    <circle class="cls-3" cx="44.43" cy="164.33" r="13.53"/>
    <circle class="cls-3" cx="79.36" cy="24.93" r="8.25"/>
    <circle class="cls-3" cx="161.87" cy="33.61" r="8.25"/>
    <circle class="cls-3" cx="69.41" cy="112.95" r="7.36"/>
    <circle class="cls-3" cx="206.56" cy="89.73" r="10.17"/>
    <circle class="cls-3" cx="196.73" cy="161.14" r="8.79"/>
    <circle class="cls-3" cx="95.7" cy="82.24" r="9.01"/>
    <circle class="cls-3" cx="69.55" cy="142.39" r="8.74"/>
    <circle class="cls-1" cx="82.27" cy="184.71" r="16.5"/>
    <circle class="cls-3" cx="55.35" cy="41.42" r="8.25"/>
  </g>
  <g>
    <g>
      <path d="M884.51,168.3v-50.97c0-9.34-.31-17.14-.61-23.88h20.2l1.07,10.41h.46c3.06-4.9,10.56-12.09,23.11-12.09,15.31,0,26.79,10.26,26.79,32.3v44.24h-23.27v-41.48c0-9.64-3.37-16.23-11.79-16.23-6.43,0-10.26,4.44-11.94,8.72-.61,1.53-.77,3.67-.77,5.82v43.16h-23.27Z"/>
      <path d="M824.78,122.38h27.55c0-5.66-2.45-15.15-13.16-15.15-9.8,0-13.78,9.03-14.39,15.15ZM873.15,138.3h-48.22c.61,9.64,10.26,14.24,21.12,14.24,7.96,0,14.39-1.07,20.66-3.21l3.06,15.77c-7.65,3.21-16.99,4.75-27.09,4.75-25.41,0-39.95-14.69-39.95-38.11,0-18.98,11.79-39.95,37.81-39.95,24.18,0,33.37,18.83,33.37,37.35,0,3.98-.46,7.5-.77,9.18Z"/>
      <path d="M747.29,122.38h27.55c0-5.66-2.45-15.15-13.16-15.15-9.8,0-13.78,9.03-14.39,15.15ZM795.66,138.3h-48.22c.61,9.64,10.26,14.24,21.12,14.24,7.96,0,14.39-1.07,20.66-3.21l3.06,15.77c-7.65,3.21-16.99,4.75-27.09,4.75-25.41,0-39.95-14.69-39.95-38.11,0-18.98,11.79-39.95,37.81-39.95,24.18,0,33.37,18.83,33.37,37.35,0,3.98-.46,7.5-.77,9.18Z"/>
      <path d="M675.97,168.3v-50.21c0-11.02-.15-18.21-.61-24.64h19.9l.92,13.78h.61c3.83-11.02,12.86-15.61,20.21-15.61,2.14,0,3.21.15,4.9.46v21.89c-1.84-.31-3.67-.61-6.28-.61-8.57,0-14.39,4.59-15.92,11.79-.31,1.53-.46,3.37-.46,5.2v37.96h-23.27Z"/>
      <path d="M663.72,149.17l2.76,17.14c-4.13,1.99-11.94,3.52-20.82,3.52-24.18,0-39.64-14.85-39.64-38.27,0-21.89,15-39.8,42.86-39.8,6.12,0,12.86,1.07,17.76,2.91l-3.67,17.3c-2.76-1.22-6.89-2.3-13.01-2.3-12.25,0-20.2,8.72-20.05,20.97,0,13.62,9.18,20.97,20.51,20.97,5.51,0,9.8-.92,13.32-2.45Z"/>
      <path d="M528.46,163.41l4.75-19.13c6.12,3.21,15.92,6.43,25.87,6.43,10.71,0,16.38-4.44,16.38-11.17s-4.9-10.1-17.3-14.39c-17.14-6.12-28.47-15.61-28.47-30.61,0-17.6,14.85-30.92,39.03-30.92,11.79,0,20.2,2.3,26.33,5.2l-5.2,18.67c-3.98-1.99-11.48-4.9-21.43-4.9s-15,4.75-15,9.95c0,6.58,5.66,9.49,19.13,14.54,18.22,6.74,26.63,16.23,26.63,30.77,0,17.3-13.16,31.99-41.48,31.99-11.79,0-23.42-3.21-29.24-6.43Z"/>
      <rect x="494.59" y="59.63" width="23.27" height="108.68"/>
      <path d="M458.6,141.06v-8.11c-12.25,0-21.74,2.91-21.74,11.79,0,5.97,3.98,8.88,9.18,8.88,5.66,0,10.56-3.83,12.09-8.57.31-1.22.46-2.6.46-3.98ZM481.1,124.07v26.17c0,7.04.31,13.93,1.22,18.06h-20.97l-1.38-7.5h-.46c-4.9,5.97-12.55,9.18-21.43,9.18-15.15,0-24.18-11.02-24.18-22.96,0-19.44,17.45-28.62,43.93-28.62v-.92c0-4.13-2.14-9.8-13.62-9.8-7.65,0-15.77,2.6-20.66,5.66l-4.29-15c5.2-2.91,15.46-6.74,29.08-6.74,24.95,0,32.76,14.69,32.76,32.45Z"/>
      <path d="M393.66,61c7.5,0,12.09,5.05,12.25,11.63,0,6.43-4.75,11.63-12.55,11.63-7.35,0-12.09-5.2-12.09-11.63s4.9-11.63,12.4-11.63ZM405.14,168.3h-23.27v-74.85h23.27v74.85Z"/>
      <path d="M327.11,168.3v-50.21c0-11.02-.15-18.21-.61-24.64h19.9l.92,13.78h.61c3.83-11.02,12.86-15.61,20.2-15.61,2.14,0,3.21.15,4.9.46v21.89c-1.84-.31-3.67-.61-6.28-.61-8.57,0-14.39,4.59-15.92,11.79-.31,1.53-.46,3.37-.46,5.2v37.96h-23.27Z"/>
      <polygon points="275.68 168.3 275.68 84.73 247.82 84.73 247.82 65.14 327.11 65.14 327.11 84.73 298.95 84.73 298.95 168.3 275.68 168.3"/>
    </g>
    <g>
      <path d="M948.83,77.69v-4.12h17.66v4.12h-6.33v16.93h-5v-16.93h-6.33Z"/>
      <path d="M970.07,94.62v-21.05h7.7l2.7,8.21c.15.5.33,1.15.52,1.95.2.8.4,1.66.59,2.57.2.92.38,1.79.56,2.64.18.84.31,1.56.42,2.16h-1.03c.11-.59.25-1.31.42-2.16.16-.84.35-1.72.55-2.63.2-.91.4-1.76.59-2.56s.36-1.45.51-1.96l2.66-8.21h7.73v21.05h-5.02v-9.09c0-.47.01-1.07.03-1.8s.04-1.52.06-2.38.05-1.72.07-2.59c.02-.87.04-1.68.04-2.44h.37c-.18.82-.38,1.67-.6,2.56-.22.88-.45,1.75-.67,2.59s-.44,1.61-.64,2.32c-.2.71-.37,1.29-.52,1.75l-2.99,9.09h-4.15l-3.05-9.09c-.14-.46-.32-1.04-.52-1.74-.21-.7-.42-1.47-.65-2.31s-.45-1.7-.68-2.59c-.23-.89-.44-1.74-.63-2.57h.44c0,.74.01,1.54.03,2.41.02.87.05,1.74.07,2.6s.05,1.66.06,2.4c.02.73.03,1.34.03,1.81v9.09h-4.99Z"/>
    </g>
  </g>
</svg>